<svg width="71" height="70" viewBox="0 0 71 70" fill="none" xmlns="http://www.w3.org/2000/svg">
<g clip-path="url(#clip0_3_177)">
<path d="M34.6767 61.2765C49.0432 61.2765 60.6896 49.5127 60.6896 35.0012C60.6896 20.4897 49.0432 8.72584 34.6767 8.72584C20.3102 8.72584 8.6638 20.4897 8.6638 35.0012C8.6638 49.5127 20.3102 61.2765 34.6767 61.2765Z" fill="#6F408F"/>
<path d="M35.1778 0C15.748 0 0 15.6693 0 35.0012C0 54.3331 15.748 70 35.1778 70C54.6075 70 70.3579 54.3331 70.3579 35.0012C70.3579 15.6693 54.6027 0 35.1778 0ZM34.8151 61.0833C20.5011 61.0833 8.89525 49.3916 8.89525 34.994C8.89525 20.5965 20.5011 8.90957 34.8151 8.90957C49.1291 8.90957 60.7349 20.587 60.7349 34.994C60.7349 49.4011 49.1291 61.0833 34.8151 61.0833Z" fill="#331C49"/>
<path fill-rule="evenodd" clip-rule="evenodd" d="M36.4829 34.6147C37.8406 33.5433 37.6306 31.2885 37.6306 31.2885C37.6306 31.2885 36.9148 32.4815 36.1775 32.2763C35.4402 32.0711 35.7194 30.7802 35.7194 30.7802C35.8459 30.0429 35.5834 28.7998 35.5237 28.5302C35.5667 28.8666 35.1801 29.7471 35.1801 29.7471C35.2589 28.6805 34.5621 27.0723 34.5407 27.0246C35.0513 28.9835 33.968 30.7969 33.968 30.7969C33.968 30.0644 33.0136 29.7017 33.0136 29.7017C33.6316 31.2551 32.5889 31.3434 32.4648 33.1615C32.4375 33.4248 32.4769 33.6907 32.5795 33.9346C32.6821 34.1786 32.8445 34.3928 33.0518 34.5574C32.0091 34.1494 30.8327 33.3047 30.952 31.5915C31.1596 28.5612 32.8943 28.4133 31.8659 25.8244C31.8659 25.8244 33.3524 26.5975 33.3667 27.8191C34.3239 26.0469 34.5753 23.9781 34.0706 22.0282C34.0706 22.0282 35.6001 24.0969 35.4689 25.9007C35.4689 25.9007 36.1107 24.9773 35.9461 24.5049C35.9795 24.5932 36.5975 26.2777 36.3684 27.6211C36.7068 27.077 37.2305 26.6736 37.843 26.4853C37.843 26.4853 35.9079 29.802 37.1272 30.1241C38.3465 30.4462 38.1866 28.3679 38.1866 28.3679C38.1866 28.3679 39.6612 33.2999 36.4829 34.6147Z" fill="#931B1E"/>
<path fill-rule="evenodd" clip-rule="evenodd" d="M36.4734 34.617C37.7595 33.6507 37.4755 31.6154 37.4755 31.6154C37.4755 31.6154 36.8003 32.6796 36.1012 32.5054C35.4021 32.3312 35.6669 31.1596 35.6669 31.1596C35.7862 30.4963 35.5381 29.3725 35.4808 29.1315C35.5237 29.4321 35.1563 30.2291 35.1563 30.2291C35.2303 29.2746 34.5717 27.8168 34.5526 27.7738C35.0298 29.5395 34.0086 31.1763 34.0086 31.1763C34.0086 30.5154 33.1472 29.9093 33.1472 29.9093C33.5791 31.3052 32.7106 31.6679 32.5913 33.3071C32.5572 33.5455 32.5852 33.7887 32.6726 34.0131C32.7599 34.2376 32.9037 34.4357 33.09 34.5884C32.1021 34.221 31.0475 33.4383 31.1596 31.8898C31.3553 29.1577 32.9993 29.0265 32.0234 26.6881C32.0234 26.6881 33.4312 27.3873 33.455 28.4896C34.3565 26.9043 34.5958 25.0273 34.1207 23.2665C34.1207 23.2665 35.5691 25.13 35.4426 26.7597C35.4426 26.7597 36.0511 25.927 35.896 25.4999C35.927 25.5786 36.5116 27.0985 36.2944 28.3107C36.6187 27.8091 37.1124 27.4408 37.6855 27.2727C37.6855 27.2727 35.8554 30.2649 37.0174 30.5536C38.1794 30.8423 38.0196 28.9716 38.0196 28.9716C38.0196 28.9716 39.4822 33.4312 36.4734 34.617Z" fill="#E12B26"/>
<path fill-rule="evenodd" clip-rule="evenodd" d="M34.1971 35.0752C33.7676 34.9869 33.0231 34.722 33.0733 33.9752C33.1472 32.9277 33.8511 32.7082 33.5004 31.8277C33.5505 31.8778 33.9322 32.2691 33.937 32.6629C33.937 32.6629 34.7435 31.5724 34.4548 30.4486C34.4977 30.5536 34.8485 31.4221 34.8055 32.0067C34.8055 32.0067 35.0441 31.4412 34.9988 31.2765C35.1045 31.7111 35.1448 32.1591 35.1181 32.6056C35.1181 32.6056 34.9559 33.35 35.3806 33.4622C35.8053 33.5743 36.2181 32.8943 36.2181 32.8943C36.2181 32.8943 36.4042 34.8914 34.8222 35.111L34.1971 35.0752Z" fill="#E12B26"/>
<path fill-rule="evenodd" clip-rule="evenodd" d="M33.3667 36.5521L23.4335 28.041L34.1852 51.7776C34.1852 51.7776 33.362 36.5068 33.3667 36.5521Z" fill="#422556"/>
<path fill-rule="evenodd" clip-rule="evenodd" d="M35.7361 36.5641L45.7886 28.1937L34.7029 51.7776C34.7029 51.7776 35.7409 36.5068 35.7361 36.5641Z" fill="#422556"/>
<path fill-rule="evenodd" clip-rule="evenodd" d="M31.9804 49.9332L27.2584 38.1842L23.5338 54.5979L31.9804 49.9332Z" fill="#E99E2E"/>
<path fill-rule="evenodd" clip-rule="evenodd" d="M36.9816 49.9332L41.7037 38.1842L45.4283 54.5979L36.9816 49.9332Z" fill="#E99E2E"/>
<path d="M4.44594 41.5904L8.04352 40.5213L8.33922 41.5164L6.29804 42.123L8.53786 42.1849L8.79414 43.0473L6.95161 44.3223L8.99279 43.7158L9.29152 44.7211L5.69394 45.7901L5.32849 44.5603L7.40178 42.9779L4.80836 42.81L4.44594 41.5904Z" fill="#E89E30"/>
<path d="M6.96239 36.9906L7.09535 38.3202L7.74106 38.4643L7.85071 39.5607L3.97908 38.5622L3.85884 37.3598L7.45661 35.6197L7.56678 36.7215L6.96239 36.9906ZM6.20438 37.3286L5.02631 37.853L6.28542 38.139L6.20438 37.3286Z" fill="#E89E30"/>
<path d="M7.6535 32.6878L6.21563 33.353L6.2084 33.4593L7.59463 33.5535L7.52349 34.5998L3.76314 34.3441L3.87546 32.6923C3.89593 32.3914 3.96637 32.14 4.0868 31.9384C4.20393 31.7329 4.35817 31.5833 4.54951 31.4896C4.74086 31.3959 4.95161 31.3569 5.18176 31.3725C5.44378 31.3903 5.66723 31.4785 5.8521 31.6369C6.03343 31.795 6.15378 32.0131 6.21314 32.291L7.73187 31.5353L7.6535 32.6878ZM5.50732 33.4116L5.54235 32.8964C5.5621 32.606 5.44096 32.452 5.17894 32.4341C5.05501 32.4257 4.95511 32.4563 4.87924 32.5258C4.80361 32.5918 4.76085 32.6974 4.75098 32.8426L4.71595 33.3578L5.50732 33.4116Z" fill="#E89E30"/>
<path d="M7.83037 27.9813L7.52048 29.2811L8.08338 29.6287L7.82781 30.7006L4.49684 28.4891L4.7771 27.3136L8.74636 26.848L8.48956 27.9251L7.83037 27.9813ZM7.00348 28.0523L5.71863 28.1619L6.81458 28.8446L7.00348 28.0523Z" fill="#E89E30"/>
<path d="M10.4426 22.6999L10.0271 23.666L7.545 24.1003L9.47874 24.941L9.06322 25.9071L5.60207 24.4022L6.01759 23.4362L8.5242 23.0126L6.56598 22.1612L6.98149 21.1951L10.4426 22.6999Z" fill="#E89E30"/>
<path d="M11.8925 19.2988L11.1531 20.4079L11.5606 20.9264L10.9508 21.8411L8.59273 18.6284L9.26146 17.6253L13.1426 18.5535L12.5298 19.4726L11.8925 19.2988ZM11.093 19.0811L9.85088 18.7422L10.6423 19.7572L11.093 19.0811Z" fill="#E89E30"/>
<path d="M12.9675 13.1349L13.5768 13.7025L12.8914 14.4485L15.0298 16.4404L14.3264 17.2059L12.188 15.2139L11.5097 15.9521L10.9003 15.3845L12.9675 13.1349Z" fill="#E89E30"/>
<path d="M16.799 9.9036L19.1349 12.8614L18.3161 13.5081L17.3725 12.3133L16.3698 13.1051L17.3134 14.3L16.4904 14.95L14.1545 11.9921L14.9775 11.3421L15.8518 12.4492L16.8545 11.6574L15.9801 10.5503L16.799 9.9036Z" fill="#E89E30"/>
<path d="M21.9908 10.4685L20.8164 11.1059L20.9336 11.757L19.9651 12.2827L19.3867 8.32642L20.4488 7.74999L23.4461 10.3934L22.4729 10.9216L21.9908 10.4685ZM21.3857 9.90048L20.4461 9.01735L20.6699 10.289L21.3857 9.90048Z" fill="#E89E30"/>
<path d="M29.4081 4.66378L30.304 8.30834L29.2959 8.55613L28.7876 6.4883L28.6187 8.7226L27.7451 8.93735L26.5595 7.03598L27.0678 9.10382L26.0494 9.35415L25.1536 5.70959L26.3994 5.40334L27.8809 7.54991L28.1726 4.96748L29.4081 4.66378Z" fill="#E89E30"/>
<path d="M33.1702 4.23935C33.5252 4.22178 33.8523 4.2892 34.1516 4.44159C34.4544 4.59026 34.6965 4.80775 34.878 5.09405C35.0631 5.38018 35.1649 5.70779 35.1833 6.07688C35.2018 6.44597 35.1332 6.78201 34.9776 7.08501C34.822 7.38801 34.601 7.6302 34.3148 7.81158C34.0319 7.98924 33.7148 8.08676 33.3635 8.10416C33.0121 8.12155 32.6851 8.05591 32.3824 7.90724C32.0794 7.75503 31.8355 7.53585 31.6504 7.24972C31.4653 6.96359 31.3635 6.63598 31.3451 6.26689C31.3266 5.8978 31.3952 5.56176 31.5508 5.25876C31.7064 4.95577 31.9275 4.71535 32.2139 4.53752C32.5001 4.35614 32.8189 4.25675 33.1702 4.23935ZM33.2187 5.20822C32.9525 5.22139 32.7475 5.31871 32.6036 5.50016C32.4595 5.67807 32.3949 5.91607 32.4098 6.21419C32.4243 6.5052 32.5123 6.73388 32.6736 6.90022C32.8349 7.06657 33.0486 7.14315 33.3148 7.12997C33.5774 7.11697 33.7807 7.01974 33.9246 6.83829C34.0685 6.65684 34.1332 6.4206 34.1186 6.12959C34.1037 5.83148 34.0157 5.60102 33.8546 5.43823C33.6968 5.27171 33.4849 5.19504 33.2187 5.20822Z" fill="#E89E30"/>
<path d="M41.2737 4.88659L40.754 8.60349L39.7259 8.45973L40.0208 6.35086L39.0353 8.36316L38.1443 8.23857L37.7485 6.03312L37.4536 8.142L36.415 7.99677L36.9347 4.27987L38.2053 4.45754L38.785 7.00048L40.0137 4.7104L41.2737 4.88659Z" fill="#E89E30"/>
<path d="M43.8736 6.49368L43.6844 7.08711L44.8459 7.45734L44.605 8.21308L43.4435 7.84284L43.2366 8.49206L44.5503 8.9108L44.2964 9.70711L41.9836 8.96988L43.1282 5.37887L45.4411 6.1161L45.1872 6.91242L43.8736 6.49368Z" fill="#E89E30"/>
<path d="M48.5274 11.6748L47.5891 11.2065L47.2895 8.70699L46.3506 10.5885L45.4122 10.1202L47.0927 6.75257L48.0311 7.22083L48.3188 9.74419L49.2696 7.83885L50.208 8.30712L48.5274 11.6748Z" fill="#E89E30"/>
<path d="M54.094 10.9826L53.6083 11.661L52.7844 11.0682L51.0797 13.4488L50.2343 12.8405L51.9389 10.4599L51.1237 9.87328L51.6094 9.19495L54.094 10.9826Z" fill="#E89E30"/>
<path d="M59.7882 16.791L56.936 19.2304L56.2613 18.4415L57.8796 17.0574L55.808 17.9115L55.2233 17.2278L56.3882 15.3138L54.77 16.6978L54.0883 15.9008L56.9405 13.4614L57.7744 14.4364L56.5236 16.7251L58.9612 15.8241L59.7882 16.791Z" fill="#E89E30"/>
<path d="M61.3657 19.2466L58.1705 21.2455L57.6143 20.3564L60.8095 18.3575L61.3657 19.2466Z" fill="#E89E30"/>
<path d="M60.3034 25.544L59.8709 24.5886L61.2155 22.4604L59.3 23.3277L58.8674 22.3724L62.296 20.82L62.7286 21.7753L61.3597 23.9145L63.2995 23.0362L63.732 23.9916L60.3034 25.544Z" fill="#E89E30"/>
<path d="M64.604 26.7426L60.9926 27.8213L60.6924 26.8164L64.3038 25.7377L64.604 26.7426Z" fill="#E89E30"/>
<path d="M62.8925 31.7008C62.6861 31.7361 62.49 31.7157 62.3041 31.6395C62.1182 31.5632 61.959 31.4321 61.8263 31.2459C61.6936 31.0598 61.6031 30.8251 61.5546 30.5417C61.481 30.1114 61.5234 29.7387 61.6819 29.4236C61.841 29.1119 62.1091 28.9112 62.4862 28.8215L62.6739 29.9181C62.5462 29.9508 62.4569 30.0075 62.4059 30.0882C62.3549 30.1689 62.3381 30.26 62.3555 30.3615C62.371 30.4524 62.4057 30.5185 62.4596 30.5597C62.5141 30.6044 62.5833 30.6195 62.6672 30.6052C62.7792 30.586 62.8562 30.5206 62.8983 30.409C62.9439 30.2968 62.9846 30.1242 63.0203 29.8912C63.0607 29.6431 63.1062 29.4355 63.1568 29.2684C63.208 29.1048 63.301 28.9539 63.4358 28.8156C63.5711 28.6808 63.7595 28.5928 64.0009 28.5515C64.2317 28.512 64.4396 28.5376 64.6243 28.6284C64.8126 28.7186 64.9664 28.8597 65.0856 29.0518C65.2084 29.2432 65.2922 29.4701 65.3371 29.7324C65.4102 30.1592 65.3668 30.5159 65.207 30.8025C65.0513 31.092 64.7936 31.2801 64.434 31.3668L64.2445 30.2597C64.3576 30.2259 64.437 30.1745 64.4828 30.1055C64.5292 30.0399 64.5443 29.9599 64.5282 29.8655C64.5144 29.785 64.4826 29.7256 64.4329 29.6873C64.3831 29.6491 64.3162 29.6371 64.2323 29.6515C64.1273 29.6694 64.0535 29.7325 64.0108 29.8406C63.9687 29.9522 63.9292 30.121 63.8922 30.3469C63.8484 30.5957 63.7994 30.8039 63.7453 30.9716C63.6912 31.1393 63.5967 31.2923 63.4619 31.4305C63.3272 31.5688 63.1374 31.6589 62.8925 31.7008Z" fill="#E89E30"/>
<path d="M65.755 35.8187L64.9194 35.8373L64.8967 34.8208L61.9642 34.8863L61.9409 33.8432L64.8734 33.7777L64.8509 32.7718L65.6865 32.7531L65.755 35.8187Z" fill="#E89E30"/>
<path d="M61.6828 38.873L63.1578 38.2947L63.1714 38.1891L61.7932 38.0123L61.9267 36.9721L65.6651 37.4517L65.4544 39.0938C65.416 39.393 65.3307 39.6397 65.1985 39.8339C65.0693 40.032 64.9064 40.1721 64.7098 40.2542C64.5132 40.3363 64.3005 40.3627 64.0717 40.3334C63.8112 40.3 63.5934 40.1987 63.4183 40.0295C63.2467 39.8608 63.1396 39.6359 63.0969 39.355L61.5358 40.0188L61.6828 38.873ZM63.8684 38.2785L63.8026 38.7907C63.7656 39.0793 63.8774 39.2404 64.1378 39.2738C64.261 39.2896 64.3626 39.2651 64.4425 39.2002C64.5219 39.1388 64.5709 39.0359 64.5894 38.8916L64.6551 38.3794L63.8684 38.2785Z" fill="#E89E30"/>
<path d="M63.9329 45.4755L61.849 43.4655L60.7011 43.1233L60.9992 42.1234L62.1471 42.4656L64.9914 41.9247L64.6492 43.0726L63.0817 43.2997L64.2705 44.3429L63.9329 45.4755Z" fill="#E89E30"/>
<path d="M10.9636 54.0081L10.2856 54.5316L10.0683 54.2491L11.8152 52.9002L12.2727 53.4949C12.4277 53.6964 12.4961 53.8845 12.478 54.0592C12.4611 54.2354 12.3693 54.3879 12.2027 54.5166C12.0377 54.6439 11.8674 54.6925 11.6917 54.6623C11.5176 54.6309 11.3549 54.5168 11.2037 54.3203L10.9636 54.0081ZM11.411 54.1128C11.5901 54.3458 11.7804 54.3845 11.9816 54.2291C12.0806 54.1527 12.134 54.0667 12.142 53.971C12.1528 53.8757 12.1112 53.767 12.0172 53.6447L11.7999 53.3623L11.1937 53.8304L11.411 54.1128Z" fill="#E89E30"/>
<path d="M12.1671 56.7913L12.4622 55.8009L12.2943 55.6123L11.6344 56.193L11.3981 55.9277L13.0502 54.4738L13.5663 55.0535C13.7336 55.2413 13.814 55.4238 13.8076 55.601C13.8026 55.7798 13.7245 55.9358 13.5732 56.0689C13.4437 56.1829 13.3051 56.2397 13.1575 56.2396C13.0112 56.2409 12.8656 56.1836 12.7206 56.0676L12.4325 57.0893L12.1671 56.7913ZM12.4839 55.4455L12.745 55.7389C12.9357 55.953 13.1263 55.9764 13.3166 55.8089C13.4071 55.7293 13.4538 55.6411 13.4567 55.5444C13.4626 55.4479 13.4165 55.3445 13.3184 55.2343L13.0572 54.941L12.4839 55.4455Z" fill="#E89E30"/>
<path d="M14.4623 56.433L13.9931 56.9089L14.5714 57.4788L14.3784 57.6745L13.8002 57.1045L13.3201 57.5915L13.965 58.2272L13.7611 58.434L12.8627 57.5484L14.4105 55.9785L15.3089 56.8641L15.1072 57.0687L14.4623 56.433Z" fill="#E89E30"/>
<path d="M15.0757 58.4688L14.5132 59.1136L14.245 58.8796L15.6942 57.2182L16.259 57.7109C16.4504 57.8779 16.5542 58.0486 16.5706 58.223C16.5884 58.3989 16.5283 58.566 16.3901 58.7245C16.2532 58.8813 16.0957 58.9622 15.9175 58.9669C15.7406 58.9701 15.5589 58.8903 15.3722 58.7275L15.0757 58.4688ZM15.5349 58.484C15.7561 58.6769 15.9501 58.6777 16.1171 58.4863C16.1992 58.3922 16.2348 58.2976 16.2239 58.2024C16.2159 58.1071 16.1539 58.0087 16.0378 57.9075L15.7695 57.6735L15.2666 58.25L15.5349 58.484Z" fill="#E89E30"/>
<path d="M17.2236 60.6876L16.4793 60.1291L16.0577 60.4101L15.7529 60.1815L17.7048 58.9327L18.032 59.1782L17.3765 61.3996L17.0718 61.171L17.2236 60.6876ZM17.3086 60.4078L17.6348 59.3643L16.7241 59.9693L17.3086 60.4078Z" fill="#E89E30"/>
<path d="M18.8512 62.3577L18.8642 61.3194L18.6506 61.183L18.1736 61.9251L17.873 61.7331L19.0673 59.8754L19.7237 60.2946C19.9364 60.4304 20.064 60.5849 20.1064 60.758C20.1506 60.9322 20.118 61.1044 20.0086 61.2745C19.915 61.4201 19.797 61.513 19.6547 61.5532C19.514 61.5946 19.3579 61.579 19.1864 61.5066L19.1886 62.5732L18.8512 62.3577ZM18.7876 60.9699L19.1198 61.182C19.3624 61.3369 19.5524 61.3073 19.69 61.0933C19.7554 60.9916 19.7763 60.8936 19.7526 60.7993C19.7318 60.7043 19.659 60.617 19.5342 60.5374L19.2021 60.3252L18.7876 60.9699Z" fill="#E89E30"/>
<path d="M21.1061 61.1216L20.0171 63.0385L19.7076 62.8627L20.7966 60.9458L21.1061 61.1216Z" fill="#E89E30"/>
<path d="M22.2607 64.193L21.9414 64.0356L21.7004 62.1027L20.9808 63.5619L20.6615 63.4044L21.6352 61.43L21.9545 61.5874L22.1928 63.5259L22.9151 62.0611L23.2344 62.2186L22.2607 64.193Z" fill="#E89E30"/>
<path d="M24.7184 62.8252C24.9618 62.9215 25.1414 63.0618 25.2571 63.2462C25.3729 63.4305 25.4168 63.6366 25.3887 63.8645L25.041 63.727C25.0393 63.599 25 63.4818 24.9231 63.3754C24.8481 63.2698 24.7411 63.1895 24.602 63.1344C24.4745 63.084 24.348 63.0686 24.2223 63.0881C24.0986 63.1084 23.9864 63.1623 23.8857 63.2498C23.787 63.3381 23.7087 63.4568 23.651 63.606C23.5902 63.7629 23.5671 63.909 23.5815 64.0443C23.596 64.1796 23.6438 64.2979 23.7248 64.3993C23.8086 64.4994 23.92 64.577 24.0591 64.632C24.2291 64.6993 24.3952 64.7047 24.5574 64.6482C24.7203 64.5898 24.85 64.4735 24.9463 64.2994L24.1958 64.0025L24.2903 63.7584L25.319 64.1654L25.1964 64.4821C25.1147 64.6241 25.0074 64.7402 24.8744 64.8306C24.7441 64.9198 24.5951 64.9737 24.4275 64.9923C24.2619 65.0116 24.0902 64.9862 23.9125 64.9158C23.7135 64.8371 23.5549 64.723 23.4368 64.5735C23.3187 64.424 23.2485 64.2544 23.2262 64.0646C23.2046 63.8729 23.2332 63.6753 23.3119 63.4719C23.3907 63.2685 23.502 63.1047 23.6458 62.9807C23.7903 62.8547 23.9548 62.7779 24.1393 62.7503C24.3264 62.7215 24.5194 62.7465 24.7184 62.8252Z" fill="#E89E30"/>
<path d="M28.3289 63.9638L28.2546 64.2413L27.3406 63.9967L27.1638 64.6573L27.918 64.8591L27.847 65.1246L27.0928 64.9228L26.845 65.8489L26.5011 65.7569L27.071 63.6272L28.3289 63.9638Z" fill="#E89E30"/>
<path d="M29.8079 64.2397C30.0085 64.2769 30.181 64.3575 30.3252 64.4816C30.4715 64.6061 30.575 64.7619 30.6356 64.9489C30.6987 65.1341 30.7105 65.3332 30.671 65.5461C30.6316 65.759 30.549 65.9417 30.4234 66.0941C30.3001 66.2449 30.1477 66.3532 29.9662 66.4191C29.787 66.4832 29.5971 66.4967 29.3965 66.4596C29.1939 66.422 29.0194 66.341 28.8731 66.2165C28.7292 66.0903 28.6258 65.9346 28.5627 65.7493C28.5 65.5619 28.4884 65.3618 28.5279 65.1489C28.5673 64.936 28.6497 64.7544 28.775 64.604C28.9006 64.4516 29.053 64.3432 29.2322 64.2791C29.4134 64.2152 29.6053 64.2021 29.8079 64.2397ZM29.7476 64.5651C29.6084 64.5393 29.4787 64.5481 29.3585 64.5915C29.2382 64.6348 29.1364 64.7102 29.053 64.8175C28.9716 64.9252 28.9163 65.0579 28.8871 65.2155C28.8579 65.3731 28.862 65.5168 28.8993 65.6465C28.9387 65.7766 29.0068 65.8834 29.1035 65.967C29.2003 66.0506 29.3182 66.1052 29.4574 66.131C29.5946 66.1565 29.7222 66.1473 29.8404 66.1036C29.9607 66.0602 30.0615 65.9847 30.1428 65.877C30.2263 65.7696 30.2826 65.6372 30.3118 65.4795C30.341 65.3219 30.3359 65.1781 30.2965 65.048C30.2591 64.9182 30.1921 64.8116 30.0954 64.728C30.0007 64.6449 29.8848 64.5906 29.7476 64.5651Z" fill="#E89E30"/>
<path d="M32.3256 66.8518L31.8673 65.9198L31.6156 65.8941L31.5271 66.7703L31.1729 66.7342L31.3945 64.5405L32.1681 64.6195C32.4187 64.645 32.6021 64.7255 32.7181 64.8608C32.8363 64.9963 32.8852 65.1646 32.8649 65.3655C32.8475 65.5374 32.7846 65.6733 32.6762 65.7732C32.5698 65.8732 32.424 65.9295 32.2385 65.942L32.7232 66.8924L32.3256 66.8518ZM31.641 65.6424L32.0325 65.6824C32.3183 65.7115 32.474 65.5998 32.4995 65.347C32.5117 65.2269 32.4859 65.1301 32.4221 65.0566C32.3607 64.9813 32.2564 64.9361 32.1094 64.9211L31.7179 64.8812L31.641 65.6424Z" fill="#E89E30"/>
<path d="M35.3135 64.7173C35.5841 64.7128 35.81 64.7778 35.9913 64.9122C36.1726 65.0466 36.2964 65.2309 36.3628 65.4651L35.985 65.4714C35.9307 65.339 35.8457 65.2353 35.73 65.1602C35.6162 65.0829 35.4772 65.0457 35.3127 65.0484C35.1816 65.0506 35.0645 65.0848 34.9615 65.151C34.8606 65.2173 34.781 65.3112 34.7226 65.433C34.6663 65.5526 34.6394 65.6925 34.6421 65.8528C34.6447 66.011 34.6762 66.15 34.7365 66.2697C34.7988 66.3874 34.8815 66.4776 34.9846 66.5404C35.0897 66.6032 35.2078 66.6336 35.339 66.6314C35.5034 66.6286 35.6412 66.5878 35.7523 66.509C35.8655 66.428 35.947 66.3215 35.9969 66.1895L36.3747 66.1832C36.3161 66.4195 36.1985 66.6078 36.0217 66.7481C35.845 66.8864 35.6213 66.9577 35.3507 66.9622C35.1426 66.9657 34.9576 66.9219 34.7957 66.8309C34.6339 66.7378 34.5078 66.6077 34.4176 66.4405C34.3274 66.2713 34.2804 66.0774 34.2768 65.8588C34.2732 65.6403 34.3137 65.446 34.3983 65.2759C34.4829 65.1038 34.6045 64.9685 34.7632 64.8701C34.9219 64.7717 35.1053 64.7208 35.3135 64.7173Z" fill="#E89E30"/>
<path d="M38.6186 64.5067L38.839 66.7104L38.4797 66.7434L38.3808 65.7539L37.3437 65.8491L37.4426 66.8387L37.0865 66.8714L36.8661 64.6676L37.2222 64.6349L37.3146 65.5589L38.3518 65.4636L38.2594 64.5397L38.6186 64.5067Z" fill="#E89E30"/>
<path d="M40.7282 66.4116L40.0354 65.6387L39.7862 65.6821L39.9376 66.5496L39.5869 66.6108L39.2079 64.439L39.9739 64.3054C40.222 64.2621 40.4202 64.2898 40.5685 64.3886C40.7188 64.4871 40.8113 64.6357 40.846 64.8347C40.8757 65.0049 40.8519 65.1527 40.7745 65.2783C40.6991 65.4034 40.5739 65.4971 40.3988 65.5594L41.122 66.3429L40.7282 66.4116ZM39.7427 65.433L40.1303 65.3653C40.4133 65.3159 40.533 65.1661 40.4893 64.9159C40.4686 64.797 40.4176 64.7108 40.3364 64.6573C40.257 64.6015 40.1444 64.5862 39.9988 64.6117L39.6112 64.6793L39.7427 65.433Z" fill="#E89E30"/>
<path d="M41.553 63.9806L42.0467 66.1293L41.6998 66.209L41.2061 64.0604L41.553 63.9806Z" fill="#E89E30"/>
<path d="M43.9807 65.0066C44.01 65.1106 44.0123 65.2147 43.9877 65.319C43.9625 65.4213 43.9066 65.5141 43.82 65.5973C43.7334 65.6805 43.6162 65.7433 43.4685 65.7858C43.3248 65.827 43.189 65.839 43.0612 65.8217C42.9328 65.8024 42.8217 65.7565 42.728 65.6841C42.6343 65.6116 42.5655 65.5168 42.5218 65.3997L42.8871 65.2948C42.9229 65.3839 42.9841 65.4517 43.0705 65.4982C43.1589 65.5441 43.261 65.5504 43.3768 65.5172C43.4806 65.4874 43.5526 65.4364 43.5927 65.3644C43.6348 65.2918 43.6435 65.2115 43.6188 65.1235C43.5974 65.0476 43.559 64.9916 43.5036 64.9557C43.4477 64.9177 43.3848 64.8937 43.315 64.8834C43.2453 64.8732 43.1515 64.8656 43.0336 64.8606C42.89 64.8564 42.7704 64.8454 42.6748 64.8275C42.5811 64.809 42.4941 64.7681 42.4137 64.7048C42.3333 64.6414 42.2749 64.5448 42.2383 64.4148C42.2063 64.3009 42.2061 64.1929 42.2378 64.0909C42.2695 63.9889 42.3308 63.8999 42.4217 63.8241C42.512 63.7464 42.625 63.688 42.7607 63.649C42.9763 63.5871 43.1616 63.59 43.3166 63.6578C43.4736 63.7251 43.5847 63.8401 43.6499 64.0029L43.2816 64.1087C43.2451 64.0327 43.1881 63.9757 43.1105 63.9375C43.0343 63.8967 42.9433 63.8915 42.8375 63.9219C42.7417 63.9494 42.6719 63.9965 42.628 64.0631C42.5836 64.1277 42.5744 64.206 42.6002 64.2979C42.6205 64.3699 42.6573 64.4241 42.7107 64.4607C42.7636 64.4952 42.8239 64.5178 42.8916 64.5286C42.9608 64.5368 43.0534 64.5437 43.1693 64.5493C43.3148 64.5529 43.4357 64.5646 43.5319 64.5845C43.6296 64.6019 43.7189 64.6432 43.7998 64.7085C43.8827 64.7733 43.943 64.8727 43.9807 65.0066Z" fill="#E89E30"/>
<path d="M45.3763 62.8024L45.4739 63.0722L44.8957 63.2795L45.5469 65.0798L45.2094 65.2009L44.5582 63.4006L43.983 63.6069L43.8854 63.3372L45.3763 62.8024Z" fill="#E89E30"/>
<path d="M45.8779 62.2613C45.9422 62.3406 45.9954 62.4312 46.0376 62.5333C46.0853 62.6488 46.094 62.7491 46.0637 62.834C46.0353 62.9181 45.9683 62.9822 45.8625 63.0263L45.8053 62.8877C45.8533 62.8676 45.8833 62.8393 45.8953 62.8027C45.9064 62.7642 45.9005 62.717 45.8774 62.6612L45.8523 62.6005L45.6966 62.6655L45.5809 62.3853L45.8779 62.2613Z" fill="#E89E30"/>
<path d="M48.5217 63.168C48.5684 63.2657 48.5884 63.368 48.5817 63.4749C48.5741 63.5798 48.5344 63.6803 48.4625 63.7764C48.3907 63.8725 48.2851 63.9535 48.1456 64.0193C48.01 64.0833 47.8772 64.1172 47.7474 64.1209C47.6166 64.1227 47.4985 64.0954 47.3932 64.0392C47.2878 63.983 47.2034 63.9007 47.1401 63.7923L47.4849 63.6296C47.5357 63.7116 47.6079 63.7685 47.7016 63.8003C47.7972 63.8313 47.8996 63.8209 48.0089 63.7694C48.1069 63.7231 48.1697 63.6612 48.1973 63.5837C48.2268 63.5053 48.2218 63.4247 48.1822 63.342C48.1481 63.2705 48.1005 63.2216 48.0394 63.1952C47.9773 63.1668 47.9108 63.1533 47.8398 63.1545C47.7689 63.1558 47.6744 63.1635 47.5565 63.1777C47.4133 63.1969 47.2927 63.2054 47.1947 63.2033C47.0985 63.2003 47.0052 63.174 46.9146 63.1246C46.8241 63.0752 46.7496 62.9894 46.6912 62.8672C46.64 62.7601 46.6215 62.6536 46.6356 62.5479C46.6497 62.4421 46.6955 62.3445 46.7728 62.2551C46.8492 62.1637 46.9515 62.0878 47.0796 62.0273C47.2831 61.9313 47.4676 61.9042 47.633 61.9459C47.8003 61.9867 47.9301 62.0821 48.0225 62.232L47.6749 62.3961C47.6258 62.3271 47.5594 62.2801 47.4759 62.255C47.3933 62.2272 47.3021 62.2368 47.2022 62.2839C47.1118 62.3266 47.0505 62.3844 47.0183 62.4571C46.9852 62.528 46.9893 62.6067 47.0306 62.6932C47.063 62.7609 47.1087 62.8084 47.168 62.8357C47.2263 62.8612 47.2901 62.8737 47.3592 62.8734C47.4292 62.8703 47.5223 62.8621 47.6383 62.8488C47.7834 62.8287 47.9054 62.8206 48.0043 62.8246C48.1042 62.8259 48.1999 62.8522 48.2914 62.9034C48.3847 62.9538 48.4615 63.042 48.5217 63.168Z" fill="#E89E30"/>
<path d="M51.2196 62.3047L50.294 61.8347L50.0775 61.9654L50.5325 62.7194L50.2277 62.9033L49.0886 61.0158L49.7543 60.614C49.97 60.4839 50.1648 60.438 50.3388 60.4765C50.5145 60.5139 50.6546 60.619 50.7589 60.7919C50.8482 60.9399 50.8794 61.0863 50.8527 61.2314C50.8277 61.3753 50.7449 61.508 50.6041 61.6294L51.5618 62.0982L51.2196 62.3047ZM49.9468 61.7489L50.2837 61.5456C50.5296 61.3971 50.587 61.2142 50.4558 60.9967C50.3934 60.8934 50.3147 60.8314 50.2197 60.811C50.1254 60.7877 50.0149 60.8142 49.8884 60.8906L49.5515 61.0938L49.9468 61.7489Z" fill="#E89E30"/>
<path d="M51.2798 59.9728L51.6622 60.5208L52.328 60.0562L52.4853 60.2815L51.8195 60.7462L52.2108 61.307L52.9535 60.7887L53.1197 61.0269L52.0851 61.7489L50.8234 59.941L51.858 59.219L52.0224 59.4546L51.2798 59.9728Z" fill="#E89E30"/>
<path d="M53.3817 58.0248L53.5605 58.2497L53.079 58.6326L54.2723 60.1333L53.9912 60.3568L52.7979 58.8561L52.3188 59.237L52.14 59.0121L53.3817 58.0248Z" fill="#E89E30"/>
<path d="M53.9651 57.5132L54.8494 58.4775C54.9816 58.6218 55.1116 58.7003 55.2392 58.7132C55.3684 58.7247 55.4905 58.6777 55.6055 58.5722C55.7191 58.4681 55.775 58.3519 55.7731 58.2236C55.7729 58.0939 55.7066 57.957 55.5743 57.8127L54.6901 56.8484L54.9524 56.6078L55.8367 57.5722C56.0407 57.7946 56.138 58.0162 56.1284 58.2368C56.1174 58.4558 56.0176 58.6519 55.8289 58.825C55.6417 58.9966 55.4393 59.0777 55.2216 59.0683C55.0025 59.0573 54.791 58.9406 54.587 58.7181L53.7027 57.7538L53.9651 57.5132Z" fill="#E89E30"/>
<path d="M57.7489 56.8562L56.7314 56.651L56.5578 56.835L57.1979 57.4401L56.9536 57.699L55.3509 56.1842L55.8847 55.6185C56.0576 55.4353 56.2331 55.3389 56.411 55.3294C56.5903 55.3184 56.7533 55.3822 56.9001 55.521C57.0258 55.6397 57.0951 55.7726 57.1081 55.9196C57.1226 56.065 57.0783 56.2152 56.9752 56.3699L58.0233 56.5654L57.7489 56.8562ZM56.3739 56.6612L56.644 56.3749C56.8413 56.1659 56.8476 55.9742 56.6629 55.7997C56.5752 55.7167 56.4828 55.6781 56.3857 55.6838C56.2886 55.6866 56.1893 55.7417 56.0879 55.8492L55.8178 56.1355L56.3739 56.6612Z" fill="#E89E30"/>
<path d="M59.5837 54.7008L59.3597 54.9775L57.4213 54.786L58.6856 55.8099L58.4616 56.0865L56.7507 54.7011L56.9747 54.4244L58.918 54.6198L57.6488 53.592L57.8728 53.3154L59.5837 54.7008Z" fill="#E89E30"/>
<path d="M34.9726 68.7378C53.7089 68.7378 68.8976 53.6259 68.8976 34.9845C68.8976 16.3431 53.7089 1.23121 34.9726 1.23121C16.2363 1.23121 1.04748 16.3431 1.04748 34.9845C1.04748 53.6259 16.2363 68.7378 34.9726 68.7378Z" stroke="#8250A0" stroke-width="0.238607" stroke-miterlimit="10"/>
<path d="M34.6552 21.8683C34.7519 21.777 34.8272 21.6655 34.8759 21.5418C34.9246 21.4181 34.9453 21.2851 34.9368 21.1525C34.8843 20.723 34.6982 20.2792 33.7604 19.9952C33.61 19.9501 33.4632 19.8934 33.3214 19.8258C33.9036 19.6015 35.3925 19.0527 36.8313 18.6686C38.6733 18.1914 39.2007 18.0959 39.2007 18.0959C39.2007 18.0959 38.9191 17.5948 37.5614 17.8573L38.9931 17.0293C38.9931 17.0293 38.5564 16.8098 37.6187 17.1797L38.4013 16.3541C38.4013 16.3541 37.9384 16.1656 37.1319 16.6547L37.6545 15.9151C37.2588 15.9356 36.8722 16.0414 36.5211 16.2252L36.6476 15.6478C36.2106 15.6996 35.7945 15.864 35.4402 16.125L35.5476 15.5738C35.1782 15.6692 34.8339 15.8434 34.5383 16.0845L34.5073 15.791C34.1187 15.9204 33.7652 16.1376 33.4741 16.4257L33.5552 16.0892C33.1243 16.1428 32.7254 16.3443 32.4266 16.6595C32.4266 16.44 32.4481 16.2348 32.4481 16.0558C32.4481 15.0107 32.67 13.6435 34.5956 11.7037C34.2747 11.7688 33.9782 11.9216 33.739 12.1451L34.6791 10.952C34.3313 10.9973 34.0065 11.1509 33.7509 11.3911L34.1088 10.6299C34.1088 10.6299 33.5791 10.6299 33.047 11.4149L33.1973 10.68C33.1973 10.68 32.6485 10.7182 32.2763 11.8468L32.3145 11.0117C32.3145 11.0117 31.9208 11.1119 31.7251 11.9041L31.6297 11.5653C31.6297 11.5653 31.2765 11.613 31.2145 12.4123L31.0379 11.8969C30.8998 12.0363 30.797 12.2067 30.738 12.3939C30.6791 12.5811 30.6657 12.7796 30.6991 12.973L30.4438 12.5173C30.4438 12.5173 30.1312 12.7559 30.2553 13.5552L30.0382 13.2331C30.0382 13.2331 29.8115 13.56 29.9571 14.2353L29.6206 13.968C29.542 14.2419 29.5572 14.5341 29.6636 14.7984L29.2866 14.6671C29.2552 15.082 29.3465 15.4968 29.549 15.8602L29.215 15.748C29.215 15.748 29.0885 16.3064 29.6445 17.015L29.3033 16.9816C29.3007 17.1328 29.3317 17.2827 29.394 17.4205C29.4563 17.5583 29.5484 17.6806 29.6636 17.7786C29.1342 17.5994 28.5746 17.5273 28.0172 17.5662C27.3539 17.089 26.3326 16.4042 25.9055 16.545L25.5023 16.2873C25.4446 16.4082 25.4361 16.5467 25.4784 16.6738L25.0537 16.4639C25.0427 16.5721 25.0566 16.6815 25.0942 16.7836L24.6862 16.7025C24.6937 16.7891 24.7187 16.8734 24.7597 16.9501C24.8007 17.0268 24.8569 17.0943 24.9248 17.1487L24.4476 17.2632C24.6483 17.4852 24.9044 17.6499 25.1897 17.7404L24.8342 17.7643C25.0415 17.944 25.3044 18.0468 25.5786 18.0554C25.7647 18.3775 26.335 18.4324 26.7573 18.4252L26.6714 18.3966L26.9291 18.418L27.2393 18.3632L27.6617 18.7497C27.6617 18.7497 27.7189 18.7688 27.7762 18.7855C27.7856 18.9783 27.8484 19.1647 27.9575 19.324C28.0666 19.4832 28.2178 19.609 28.3942 19.6874C28.8547 20.4032 29.2627 21.4674 31.8587 21.3362C33.0637 21.2765 33.4932 21.372 33.8845 21.6082C34.2758 21.8444 34.2639 22.4481 34.2639 22.4481C34.3757 22.3962 34.4712 22.3148 34.5402 22.2126C34.6091 22.1104 34.6489 21.9914 34.6552 21.8683Z" fill="white"/>
<path d="M35.686 36.7502H34.7578V35.0394H34.2448V36.7502H33.3572V37.2632H34.2448V50.5583H34.7578V37.2632H35.686V36.7502Z" fill="#E12B26"/>
<path d="M9.06228 50.4199C9.60389 50.4199 10.043 49.9809 10.043 49.4393C10.043 48.8977 9.60389 48.4586 9.06228 48.4586C8.52067 48.4586 8.0816 48.8977 8.0816 49.4393C8.0816 49.9809 8.52067 50.4199 9.06228 50.4199Z" fill="#E89E30"/>
<path d="M60.8041 50.4199C61.3457 50.4199 61.7848 49.9809 61.7848 49.4393C61.7848 48.8977 61.3457 48.4586 60.8041 48.4586C60.2625 48.4586 59.8234 48.8977 59.8234 49.4393C59.8234 49.9809 60.2625 50.4199 60.8041 50.4199Z" fill="#E89E30"/>
</g>
<defs>
<clipPath id="clip0_3_177">
<rect width="70.3579" height="70" fill="white"/>
</clipPath>
</defs>
</svg>
